Coordinates
version=1
nRows=14
nColumns=24
inDegrees=yes

Units are S.I. units (second, meters, Newtons, ...)
Angles are in degrees.

endheader
time	pelvis_tilt	pelvis_list	pelvis_rotation	pelvis_tx	pelvis_ty	pelvis_tz	hip_flexion_r	hip_adduction_r	hip_rotation_r	knee_angle_r	ankle_angle_r	subtalar_angle_r	mtp_angle_r	hip_flexion_l	hip_adduction_l	hip_rotation_l	knee_angle_l	ankle_angle_l	subtalar_angle_l	mtp_angle_l	lumbar_extension	lumbar_bending	lumbar_rotation
      4.99500000	     -8.95781689	      3.52263538	      5.45623047	     -1.39939497	     -0.00605417	     -0.31233745	     27.17078596	    -10.61271960	    -11.60604659	    -66.60761600	    -16.64403340	      4.42250540	     37.41006035	     12.72693471	      9.40085930	     19.32020582	    -16.59555687	      2.74601233	     -9.34688315	      2.51415395	      5.80619641	     -6.04532641	     -1.31432875
      5.00000000	     -8.92326020	      3.19933141	      5.62274582	     -1.39400237	     -0.00562799	     -0.31268489	     27.84972205	    -10.34390243	    -11.84487391	    -66.20446596	    -16.11415469	      4.54428925	     37.58847925	     12.24524635	      9.05829620	     19.57023071	    -16.42218942	      2.99941170	     -9.38412108	      2.46680180	      5.70990692	     -5.71655078	     -1.66840426
      5.00500000	     -8.81331346	      2.93475096	      5.90223188	     -1.38871467	     -0.00518680	     -0.31315464	     28.39927182	    -10.19742785	    -12.17209883	    -65.74568839	    -15.49863718	      4.73531440	     37.79740096	     11.67829532	      8.78935839	     19.96665359	    -16.25470464	      3.24627897	     -9.35490102	      2.35221339	      5.49096537	     -5.46926193	     -2.20163914
      5.01000000	     -8.71146214	      2.67930343	      6.09009415	     -1.38339846	     -0.00480029	     -0.31351150	     28.96608855	    -10.00239527	    -12.40208096	    -65.22121676	    -14.93843123	      4.82054063	     37.91007444	     11.10587621	      8.49345193	     20.25243793	    -16.04178565	      3.50059695	     -9.34040838	      2.27803403	      5.30228835	     -5.20934983	     -2.58189519
      5.01500000	     -8.61415082	      2.44504392	      6.26004612	     -1.37809218	     -0.00447175	     -0.31383166	     29.52740489	     -9.80914690	    -12.58933270	    -64.63761358	    -14.39828207	      4.85970003	     37.95503459	     10.53492609	      8.20153253	     20.47791801	    -15.80826896	      3.75596526	     -9.27349138	      2.28290016	      5.11751306	     -4.96910073	     -2.93354010
      5.02000000	     -8.51223238	      2.22796022	      6.41723497	     -1.37279286	     -0.00419114	     -0.31410666	     30.06831720	     -9.61564407	    -12.74483286	    -63.99194391	    -13.86791363	      4.86996020	     37.93594547	      9.95614869	      7.91028308	     20.65888888	    -15.55785311	      4.00928575	     -9.16340423	      2.36274508	      4.92948043	     -4.74438935	     -3.26761387
      5.02500000	     -8.44864398	      2.03269130	      6.53086439	     -1.36749999	     -0.00403412	     -0.31430000	     30.65039177	     -9.41278906	    -12.83169498	    -63.29494564	    -13.36576052	      4.83059843	     37.90729322	      9.41420032	      7.62986455	     20.80380959	    -15.29350650	      4.26709160	     -9.08140337	      2.48307508	      4.78834781	     -4.54325799	     -3.50543370
      5.03000000	     -8.24556943	      1.86329944	      6.69981691	     -1.36220367	     -0.00374870	     -0.31451047	     31.02644304	     -9.24560791	    -12.97512074	    -62.52760834	    -12.77127023	      4.81782227	     37.58351551	      8.72199227	      7.34998637	     20.90048969	    -15.01579668	      4.50351236	     -8.82835458	      2.80602728	      4.48192567	     -4.36353688	     -3.84316746
      5.03500000	     -8.14188132	      1.68761047	      6.83404491	     -1.35692687	     -0.00361626	     -0.31466831	     31.50896994	     -9.04336667	    -13.03157341	    -61.69659574	    -12.25773232	      4.81343907	     37.34209085	      8.14431296	      7.07090142	     20.98163684	    -14.74394654	      4.70314096	     -8.68125693	      3.07427724	      4.29242183	     -4.18156902	     -4.16978956
      5.04000000	     -8.01590194	      1.54160094	      6.94700760	     -1.35164094	     -0.00353109	     -0.31476063	     31.94824740	     -8.84859874	    -13.05312524	    -60.81086131	    -11.73142206	      4.78285237	     37.01614838	      7.53748633	      6.81148239	     21.03700850	    -14.46466898	      4.89805282	     -8.55064595	      3.37917242	      4.07924245	     -4.02488435	     -4.43561936
      5.04500000	     -7.88595701	      1.40361964	      7.06185097	     -1.34636017	     -0.00348906	     -0.31482723	     32.35659649	     -8.65181770	    -13.05521592	    -59.86194794	    -11.19462283	      4.77086667	     36.60756349	      6.93048904	      6.56003689	     21.10923951	    -14.19573030	      5.07684379	     -8.44626391	      3.69300980	      3.85986370	     -3.88244677	     -4.69414743
      5.05000000	     -7.74945763	      1.28517920	      7.17071813	     -1.34108954	     -0.00350827	     -0.31486461	     32.73760343	     -8.46611426	    -13.03410713	    -58.86537545	    -10.64817429	      4.77718645	     36.09024502	      6.31755821	      6.32939905	     21.20079509	    -13.93455810	      5.25132899	     -8.39280562	      3.99762425	      3.62776151	     -3.75842764	     -4.93925404
      5.05500000	     -7.74778196	      1.18021486	      7.24766866	     -1.33581389	     -0.00369847	     -0.31482587	     33.25163278	     -8.26675541	    -12.90457072	    -57.78606424	    -10.24448979	      4.75851290	     35.89605171	      5.86322342	      6.13642421	     21.32895328	    -13.72002254	      5.42717333	     -8.40252584	      4.10325087	      3.56156912	     -3.66822957	     -5.09817721
      5.06000000	     -7.52800827	      1.10346987	      7.34125496	     -1.33050989	     -0.00370552	     -0.31475605	     33.48678462	     -8.08727757	    -12.84475728	    -56.71249324	     -9.48697857	      4.92724815	     34.60323497	      5.15032254	      5.93618224	     21.43857030	    -13.45282258	      5.52157241	     -8.47845564	      4.38198968	      3.23773393	     -3.58027481	     -5.32187992
